# AST/ASF file generated using VICON BodyLanguage
# -----------------------------------------------
:version 1.10
:name VICON
:units
  mass 1.0
  length 0.45
  angle deg
:documentation
   .ast/.asf automatically generated from VICON data using
   VICON BodyBuilder and BodyLanguage model FoxedUp or BRILLIANT.MOD
:root
   order TX TY TZ RX RY RZ
   axis XYZ
   position 0 0 0  
   orientation 0 0 0 
:bonedata
  begin
     id 1 
     name lhipjoint
     direction 0.655637 -0.713449 0.247245 
     length 2.52691 
     axis 0 0 0  XYZ
  end
  begin
     id 2 
     name lfemur
     direction 0.34202 -0.939693 0  
     length 7.59371  
     axis 0 0 20  XYZ
    dof rx ry rz
    limits (-160.0 20.0)
           (-70.0 70.0)
           (-60.0 70.0)
  end
  begin
     id 3 
     name ltibia
     direction 0.34202 -0.939693 0   
     length 7.28717   
     axis 0 0 20   XYZ
    dof rx
    limits (-10.0 170.0)
  end
  begin
     id 4 
     name lfoot
     direction 0.0886837 -0.243657 0.965798   
     length 2.2218   
     axis -90 7.62852e-016 20   XYZ
    dof rx rz
    limits (-45.0 90.0)
           (-70.0 20.0)
  end
  begin
     id 5 
     name ltoes
     direction 1.53547e-011 -4.22004e-011 1   
     length 1.11249   
     axis -90 7.62852e-016 20   XYZ
    dof rx
    limits (-90.0 20.0)
  end
  begin
     id 6 
     name rhipjoint
     direction -0.645062 -0.722004 0.250209   
     length 2.49697  
     axis 0 0 0  XYZ 
  end
  begin
     id 7 
     name rfemur
     direction -0.34202 -0.939693 0   
     length 7.58734   
     axis 0 0 -20   XYZ
    dof rx ry rz
    limits (-160.0 20.0)
           (-70.0 70.0)
           (-70.0 60.0)
  end
  begin
     id 8 
     name rtibia
     direction -0.34202 -0.939693 0   
     length 7.21538   
     axis 0 0 -20   XYZ
    dof rx
    limits (-10.0 170.0)
 end
 begin
     id 9 
     name rfoot
     direction -0.102907 -0.282735 0.953662   
     length 2.23735  
     axis -90 -7.62852e-016 -20   XYZ
    dof rx rz
    limits (-45.0 90.0)
           (-20.0 70.0)
  end
  begin
     id 10 
     name rtoes
     direction -1.5354e-011 -4.21751e-011 1   
     length 1.11569   
     axis -90 -7.62852e-016 -20   XYZ
    dof rx
    limits (-90.0 20.0)
  end
  begin
     id 11 
     name lowerback
     direction 0.00952301 0.997604 -0.0685217   
     length 2.05943   
     axis 0 0 0   XYZ
    dof rx ry rz
    limits (-20.0 45.0)
           (-30.0 30.0)
           (-30.0 30.0)
  end
  begin
     id 12 
     name upperback
     direction 0.00494399 0.999577 -0.0286701   
     length 2.06523   
     axis 0 0 0   XYZ
    dof rx ry rz
    limits (-20.0 45.0)
           (-30.0 30.0)
           (-30.0 30.0)
  end
  begin
     id 13 
     name thorax
     direction 0.000729686 0.999992 0.00388603   
     length 2.06807   
     axis 0 0 0   XYZ
    dof rx ry rz
    limits (-20.0 45.0)
           (-30.0 30.0)
           (-30.0 30.0)
  end
  begin
     id 14 
     name lowerneck
     direction 0.00452882 0.995459 0.0950816   
     length 1.57426   
     axis 0 0 0   XYZ
    dof rx ry rz
    limits (-20.0 45.0)
           (-30.0 30.0)
           (-30.0 30.0)
  end
  begin
     id 15 
     name upperneck
     direction 0.021922 0.997711 -0.0639762   
     length 1.56399   
     axis 0 0 0   XYZ
    dof rx ry rz
    limits (-20.0 45.0)
           (-30.0 30.0)
           (-30.0 30.0)
  end
  begin
     id 16
     name head
     direction 0.008024 0.999444 -0.0323691  
     length 1.6265  
     axis 0 0 0   XYZ
    dof rx ry rz
    limits (-20.0 45.0)
           (-30.0 30.0)
           (-30.0 30.0)
  end
  begin
     id 17 
     name lclavicle
     direction 0.967826 0.247107 -0.0474446  
     length 3.6598  
     axis 0 0 0   XYZ
    dof ry rz
    limits (-20.0 10.0)
           (0.0 20.0)
  end
  begin
     id 18 
     name lhumerus
     direction 1 -4.48971e-011 -2.90544e-027   
     length 4.86513   
     axis 180 -30 -90   XYZ
    dof rx ry rz
    limits (-60.0 90.0)
           (-90.0 90.0)
           (-90.0 90.0)
  end
  begin
     id 19
     name lradius
     direction 1 -4.48958e-011 1.79638e-026   
     length 3.35554   
     axis 180 -30 -90   XYZ
    dof rx
    limits (-10.0 170.0)
  end
  begin
     id 20
     name lwrist
     direction 1 -4.48952e-011 3.34345e-026   
     length 1.67777   
     axis -2.22354e-014 90 90   XYZ
    dof ry
    limits (-180.0 0.0)
 end
  begin
     id 21 
     name lhand
     direction 1 -4.49055e-011 6.6869e-026   
     length 0.661175   
     axis -4.26681e-014 90 90   XYZ
    dof rx rz
    limits (-90.0 90.0)
           (-45.0 45.0)
  end
  begin
     id 22 
     name lfingers
     direction 1 -4.48731e-011 1.33738e-025   
     length 0.533057   
     axis -8.53362e-014 90 90   XYZ
    dof rx
    limits (0.0 90.0)
  end
  begin
     id 23
     name lthumb
     direction 0.707107 -6.35005e-011 0.707107   
     length 0.765366   
     axis -90 45 2.85299e-015   XYZ
    dof rx rz
    limits (-45.0 45.0)
           (-45.0 45.0)
  end
  begin
     id 24 
     name rclavicle
     direction -0.973174 0.211421 -0.0907389   
     length 3.59444  
     axis 0 0 0   XYZ 
    dof ry rz
    limits (-10.0 20.0)
           (-20.0 0.0)
  end
  begin
     id 25 
     name rhumerus
     direction -1 -4.48964e-011 1.56311e-027  
     length 5.02649   
     axis 180 30 90   XYZ
    dof rx ry rz
    limits (-90.0 60.0)
           (-90.0 90.0)
           (-90.0 90.0)
  end
  begin
     id 26 
     name rradius
     direction -1 -4.48948e-011 2.01724e-026   
     length 3.36431   
     axis 180 30 90   XYZ
    dof rx
    limits (-10.0 170.0)
  end
  begin
     id 27 
     name rwrist
     direction -1 -4.49008e-011 3.34345e-026   
     length 1.68216   
     axis -2.22354e-014 -90 -90   XYZ
    dof ry
    limits (-180.0 0.0)
  end
  begin
     id 28
     name rhand
     direction -1 -4.49013e-011 6.6869e-026   
     length 0.730406   
     axis -4.26681e-014 -90 -90   XYZ
    dof rx rz
    limits (-90.0 90.0)
           (-45.0 45.0)
  end
  begin
     id 29
     name rfingers
     direction -1 -4.48867e-011 1.33738e-025   
     length 0.588872   
     axis -8.53362e-014 -90 -90   XYZ
    dof rx
    limits (0.0 90.0)
  end
  begin
     id 30
     name rthumb
     direction -0.707107 -6.34907e-011 0.707107   
     length 0.845506   
     axis -90 -45 -2.85299e-015   XYZ
    dof rx rz
    limits (-45.0 45.0)
           (-45.0 45.0)
  end
:hierarchy
  begin
    root lhipjoint rhipjoint lowerback
    lhipjoint lfemur
    lfemur ltibia
    ltibia lfoot
    lfoot ltoes
    rhipjoint rfemur
    rfemur rtibia
    rtibia rfoot
    rfoot rtoes
    lowerback upperback
    upperback thorax
    thorax lowerneck lclavicle rclavicle
    lowerneck upperneck
    upperneck head
    lclavicle lhumerus
    lhumerus lradius
    lradius lwrist
    lwrist lhand lthumb
    lhand lfingers
    rclavicle rhumerus
    rhumerus rradius
    rradius rwrist
    rwrist rhand rthumb
    rhand rfingers
  end

#!OML:ASF H:\Terrain\Patient Classification 1\Takeo\Monday\TakeoMonday.ASF
:FULLY-SPECIFIED
:DEGREES
114
root 9.81613 20.7921 1.24834 3.69457 0.388046 -1.89433
lowerback 9.72246 -0.231534 2.31713
upperback -1.44065 -0.0350157 -0.122957
thorax -6.98418 -0.111981 -1.42944
lowerneck -10.7632 0.624896 -2.42582
upperneck 7.16732 1.27409 -0.777266
head 4.30179 0.515451 0.263753
rclavicle 1.66731e-014 -3.97569e-015
rhumerus -1.59448 35.8043 -74.0773
rradius 80.6345
rwrist -27.1894
rhand -34.2178 36.8701
rfingers 7.12502
rthumb -7.3898 7.01912
lclavicle 1.66731e-014 -3.97569e-015
lhumerus 3.62627 -38.0358 54.1176
lradius 71.7838
lwrist 29.1411
lhand -30.059 11.368
lfingers 7.12502
lthumb -3.37443 41.321
rfemur -1.94888 -12.2301 21.1493
rtibia 13.4529
rfoot 12.1023 -21.8245
rtoes -6.45356
lfemur -4.48081 2.51735 -20.4187
ltibia 17.7533
lfoot 9.1039 26.9056
ltoes 4.55666
115
root 9.82713 21.1483 1.33982 3.94855 0.492585 -1.17191
lowerback 8.28868 -0.224024 1.62673
upperback -2.01288 -0.145527 -0.346657
thorax -6.77329 -0.14558 -1.25838
lowerneck -9.51674 0.660394 -2.82711
upperneck 7.41932 1.29683 -0.309463
head 4.13531 0.539444 0.486623
rclavicle -3.97569e-016 -1.98785e-015
rhumerus -3.70713 36.4173 -75.6952
rradius 80.3983
rwrist -26.6135
rhand -32.9671 36.4338
rfingers 7.12502
rthumb -6.18246 6.54405
lclavicle -3.97569e-016 -1.98785e-015
lhumerus 0.758276 -38.9423 56.8159
lradius 70.9537
lwrist 29.1248
lhand -28.8898 11.122
lfingers 7.12502
lthumb -2.24525 41.0899
rfemur -1.58114 -12.8758 20.3638
rtibia 14.8818
rfoot 11.8296 -24.7896
rtoes -3.10787
lfemur -3.98566 4.2267 -21.1018
ltibia 18.1643
lfoot 11.3369 27.4651
ltoes 3.33212
116
root 9.83751 21.4797 1.40061 4.12999 0.322883 -0.709687
lowerback 7.30279 -0.130289 1.12828
upperback -2.54217 -0.0909224 -0.459332
thorax -6.7653 -0.103709 -1.1033
lowerneck -8.75519 0.632621 -3.0691
upperneck 7.80556 1.25982 -0.206267
head 4.11971 0.515762 0.558088
rclavicle 1.07468e-014 -3.77691e-015
rhumerus -5.66884 36.6896 -77.3657
rradius 80.0055
rwrist -25.6135
rhand -31.4024 36.3219
rfingers 7.12502
rthumb -4.67168 6.39338
lclavicle 1.07468e-014 -3.77691e-015
lhumerus -2.17784 -39.6029 59.7706
lradius 70.0691
lwrist 28.6069
lhand -27.8782 10.878
lfingers 7.12502
lthumb -1.26825 40.854
rfemur -1.20745 -13.259 19.8684
rtibia 16.287
rfoot 12.4187 -27.075
rtoes 1.69862
lfemur -3.63021 6.23192 -21.554
ltibia 18.9843
lfoot 13.0658 27.8804
ltoes 3.5434
117
root 9.84267 21.7912 1.44012 3.88426 -0.0967244 -0.779505
lowerback 6.87785 0.0318072 1.03806
upperback -2.737 0.117503 -0.392375
thorax -6.72169 0.00353625 -1.00858
lowerneck -9.01854 0.653387 -2.69414
upperneck 8.4895 1.30742 -0.692424
head 4.42377 0.516578 0.335982
rclavicle 1.81702e-015 -1.39149e-015
rhumerus -7.15936 36.5658 -78.9324
rradius 79.4994
rwrist -24.3493
rhand -29.7037 36.2146
rfingers 7.12502
rthumb -3.03133 6.25639
lclavicle 1.81702e-015 -1.39149e-015
lhumerus -4.88523 -39.6837 62.7094
lradius 69.1283
lwrist 27.7782
lhand -26.8951 10.4665
lfingers 7.12502
lthumb -0.318735 40.446
rfemur -0.40166 -13.401 19.8087
rtibia 17.4403
rfoot 14.0586 -26.9146
rtoes 2.57298
lfemur -3.05125 7.93295 -21.3683
ltibia 20.3414
lfoot 14.5823 27.1659
ltoes 3.92226
118
root 9.84442 22.0927 1.46783 3.38913 -0.62269 -1.26438
lowerback 6.77187 0.217374 1.28975
upperback -2.73327 0.399281 -0.222794
thorax -6.64936 0.135852 -1.00721
lowerneck -9.38327 0.65073 -2.22205
upperneck 8.86211 1.30057 -1.09281
head 4.64003 0.501712 0.118531
rclavicle 4.0844e-015 -5.1684e-015
rhumerus -8.69109 36.0363 -80.7453
rradius 79.0637
rwrist -22.6817
rhand -28.6105 36.0055
rfingers 7.12502
rthumb -1.97554 6.0349
lclavicle 4.0844e-015 -5.1684e-015
lhumerus -7.51409 -39.4435 65.6419
lradius 68.0823
lwrist 27.2081
lhand -26.3902 9.69231
lfingers 7.12502
lthumb 0.168909 39.672
rfemur 0.76194 -12.5638 20.1569
rtibia 18.196
rfoot 15.2899 -24.8057
rtoes 1.23698
lfemur -2.44993 9.08349 -20.6345
ltibia 22.1573
lfoot 17.1905 24.3342
ltoes 2.10357
119
root 9.84482 22.3855 1.49808 2.69775 -0.596501 -1.98658
lowerback 6.99675 0.123404 1.76586
upperback -2.86326 0.345087 0.0946049
thorax -6.91855 0.0929228 -0.937694
lowerneck -8.93267 0.729724 -2.4801
upperneck 8.95178 1.39398 -0.760998
head 4.57525 0.557144 0.281431
rclavicle -1.15936e-014 3.97569e-016
rhumerus -10.7397 35.7104 -82.9653
rradius 78.5435
rwrist -21.0818
rhand -27.9494 35.7504
rfingers 7.12502
rthumb -1.33701 5.77486
lclavicle -1.15936e-014 3.97569e-016
lhumerus -10.9243 -38.8133 69.0661
lradius 67.0764
lwrist 26.4548
lhand -26.0134 8.91233
lfingers 7.12502
lthumb 0.532845 38.8914
rfemur 2.24886 -10.9038 20.9353
rtibia 18.6372
rfoot 15.8488 -21.6414
rtoes -2.56071
lfemur -1.7859 8.9662 -19.5884
ltibia 24.0272
lfoot 18.3139 21.521
ltoes 1.63255
120
root 9.84516 22.6698 1.52527 1.86803 -1.07201 -2.65202
lowerback 7.59499 0.136718 2.11071
upperback -3.03784 0.438042 0.429698
thorax -7.44887 0.12476 -0.795867
lowerneck -8.45861 0.855188 -2.75706
upperneck 9.19359 1.55856 -0.492291
head 4.56063 0.641028 0.430572
rclavicle 2.79541e-015 0
rhumerus -12.8846 35.5904 -85.2467
rradius 77.8635
rwrist -20.1683
rhand -27.3856 35.4979
rfingers 7.12502
rthumb -0.792559 5.51967
lclavicle 2.79541e-015 0
lhumerus -14.4181 -37.7904 72.48
lradius 66.1359
lwrist 25.5067
lhand -25.2483 9.30896
lfingers 7.12502
lthumb 1.27178 39.2849
rfemur 3.63724 -8.42876 21.7779
rtibia 18.9838
rfoot 16.3431 -17.2895
rtoes -8.14783
lfemur -0.844006 8.5855 -18.7134
ltibia 25.5573
lfoot 18.4123 19.4095
ltoes -0.241954
121
root 9.85784 22.931 1.54967 0.775543 -1.54051 -2.77677
lowerback 8.18796 0.220336 2.27914
upperback -2.81468 0.58131 0.430565
thorax -7.54792 0.187151 -0.913421
lowerneck -8.69981 0.8508 -2.64094
upperneck 9.8631 1.55174 -0.492643
head 4.36288 0.636404 0.374733
rclavicle 4.25523e-016 -6.55989e-015
rhumerus -14.6329 34.8819 -87.3275
rradius 77.2803
rwrist -19.8375
rhand -27.146 35.0454
rfingers 7.12502
rthumb -0.561057 5.06643
lclavicle 4.25523e-016 -6.55989e-015
lhumerus -16.8244 -36.7783 75.1235
lradius 65.1102
lwrist 24.867
lhand -24.6134 10.7809
lfingers 7.12502
lthumb 1.88496 40.7523
rfemur 5.18844 -6.09516 22.0711
rtibia 19.3008
rfoot 15.9465 -13.5877
rtoes -12.1742
lfemur 0.533461 8.07547 -18.4976
ltibia 26.6317
lfoot 18.3118 17.1421
ltoes -4.44525
122
root 9.88106 23.1749 1.58125 -0.153618 -1.66969 -2.037
lowerback 8.36423 0.207826 1.77159
upperback -2.61625 0.487277 0.128229
thorax -7.44051 0.159502 -0.933229
lowerneck -8.84804 0.989071 -2.32663
upperneck 10.1427 1.70579 -0.501891
head 4.47402 0.719669 0.332776
rclavicle -2.51587e-015 -7.95139e-016
rhumerus -16.5674 33.9264 -89.5732
rradius 76.6832
rwrist -19.7891
rhand -27.3458 34.7714
rfingers 7.12502
rthumb -0.75404 4.79302
lclavicle -2.51587e-015 -7.95139e-016
lhumerus -19.197 -35.6926 77.4595
lradius 64.0218
lwrist 24.2717
lhand -24.6744 11.4963
lfingers 7.12502
lthumb 1.82601 41.4682
rfemur 6.52112 -4.32802 21.4734
rtibia 19.5763
rfoot 15.0011 -11.2721
rtoes -14.9113
lfemur 1.8226 7.37587 -19.366
ltibia 27.2309
lfoot 17.6522 15.6568
ltoes -7.2671
123
root 9.89936 23.4078 1.6342 -0.755751 -1.80845 -1.37862
lowerback 8.15223 0.150218 1.18012
upperback -2.73153 0.327635 -0.0636704
thorax -7.4468 0.103363 -0.778186
lowerneck -8.22059 1.2648 -1.97065
upperneck 10.2616 2.0218 -0.55882
head 4.40676 0.886119 0.273342
rclavicle 1.27781e-014 -1.09332e-014
rhumerus -18.9719 33.2206 -92.0045
rradius 75.9087
rwrist -20.0162
rhand -28.0242 34.6989
rfingers 7.12502
rthumb -1.40932 4.72376
lclavicle 1.27781e-014 -1.09332e-014
lhumerus -22.1516 -34.3177 79.9536
lradius 62.7656
lwrist 23.4015
lhand -24.925 10.8643
lfingers 7.12502
lthumb 1.58398 40.8382
rfemur 7.47089 -2.74796 21.0564
rtibia 19.8235
rfoot 13.933 -10.3251
rtoes -15.4958
lfemur 2.9026 6.71444 -20.2176
ltibia 27.3708
lfoot 17.3407 14.8552
ltoes -8.6124
124
root 9.91723 23.6374 1.7068 -1.01481 -2.05237 -1.36828
lowerback 7.47353 0.147485 1.36044
upperback -2.82828 0.331154 -0.107364
thorax -7.15702 0.0973816 -0.922337
lowerneck -8.00425 1.35802 -2.03659
upperneck 10.5914 2.12931 -0.335825
head 4.46762 0.946672 0.359197
rclavicle 3.8763e-015 8.94531e-015
rhumerus -21.0428 32.309 -94.0362
rradius 75.0358
rwrist -20.3635
rhand -28.9045 33.7471
rfingers 7.12502
rthumb -2.25949 3.77928
lclavicle 3.8763e-015 8.94531e-015
lhumerus -24.6735 -32.692 82.2503
lradius 61.3417
lwrist 22.3379
lhand -25.1616 10.3987
lfingers 7.12502
lthumb 1.35551 40.3741
rfemur 8.06678 -1.52972 21.3069
rtibia 19.9871
rfoot 12.8802 -10.1502
rtoes -14.9446
lfemur 3.75233 5.88861 -20.4739
ltibia 27.1432
lfoot 17.4156 14.7386
ltoes -9.00563
125
root 9.94313 23.8635 1.78635 -0.984532 -2.24659 -1.3063
lowerback 6.47582 0.157663 1.61986
upperback -2.83547 0.349434 -0.169288
thorax -6.58776 0.0983249 -1.12909
lowerneck -8.59489 1.34904 -2.19307
upperneck 11.2553 2.14743 -0.213956
head 4.76756 0.94779 0.432462
rclavicle 1.28092e-014 -1.70955e-014
rhumerus -22.519 31.3581 -95.5728
rradius 74.0156
rwrist -21.1204
rhand -29.9071 32.6748
rfingers 7.12502
rthumb -3.22772 2.7195
lclavicle 1.28092e-014 -1.70955e-014
lhumerus -26.4976 -31.0964 84.1733
lradius 59.7942
lwrist 21.3466
lhand -25.4745 10.47
lfingers 7.12502
lthumb 1.05326 40.4471
rfemur 8.42491 -0.987816 21.3322
rtibia 19.828
rfoot 11.886 -10.1718
rtoes -14.0513
lfemur 4.27798 5.07846 -20.8705
ltibia 26.7864
lfoot 17.0067 15.3231
ltoes -7.82684
126
root 9.96534 24.0843 1.86113 -0.726131 -2.3964 -1.23163
lowerback 5.4128 0.135196 1.67234
upperback -2.96685 0.307433 -0.133141
thorax -6.11691 0.0798944 -1.1101
lowerneck -9.16713 1.42792 -2.07876
upperneck 11.9639 2.30735 -0.549341
head 5.08723 0.999346 0.33037
rclavicle 5.54112e-015 -1.22253e-014
rhumerus -23.9386 30.6428 -96.9106
rradius 72.8229
rwrist -22.109
rhand -30.9406 32.3929
rfingers 7.12502
rthumb -4.22573 2.45504
lclavicle 5.54112e-015 -1.22253e-014
lhumerus -28.2826 -29.2536 85.9351
lradius 58.2964
lwrist 20.3905
lhand -25.0465 10.5044
lfingers 7.12502
lthumb 1.46669 40.4791
rfemur 8.54497 -0.731476 21.3682
rtibia 19.4085
rfoot 10.7351 -10.7033
rtoes -13.4186
lfemur 4.42168 4.63203 -21.2012
ltibia 26.3688
lfoot 16.0696 15.6939
ltoes -7.02617
127
root 9.98307 24.2948 1.93031 -0.472978 -2.48964 -1.64448
lowerback 4.58969 0.0597516 2.15116
upperback -3.22661 0.238558 0.0658893
thorax -5.92073 0.0308513 -1.16138
lowerneck -9.62944 1.49356 -1.95545
upperneck 12.9383 2.45707 -0.902946
head 5.47425 1.03943 0.221184
rclavicle 8.01351e-016 6.36111e-015
rhumerus -25.6588 29.8247 -98.2311
rradius 71.6283
rwrist -22.6089
rhand -31.781 32.035
rfingers 7.12502
rthumb -5.03729 2.11482
lclavicle 8.01351e-016 6.36111e-015
lhumerus -30.3787 -26.9089 87.593
lradius 57.0607
lwrist 19.4813
lhand -24.4227 10.249
lfingers 7.12502
lthumb 2.06912 40.2187
rfemur 8.54889 -0.691263 21.9768
rtibia 19.1581
rfoot 8.99433 -11.6463
rtoes -14.389
lfemur 4.57179 4.4167 -20.9276
ltibia 25.7657
lfoot 14.6063 15.8983
ltoes -7.74244
128
root 10.0059 24.4925 1.99657 -0.445307 -2.59981 -1.93585
lowerback 4.01345 -0.00149627 2.60294
upperback -3.27209 0.177914 0.179355
thorax -5.641 -0.0119895 -1.28934
lowerneck -10.5816 1.45434 -1.55656
upperneck 14.0005 2.4745 -1.48727
head 5.98342 1.00461 -0.0118941
rclavicle -7.3923e-015 7.45443e-016
rhumerus -26.9845 28.6816 -99.2818
rradius 70.4115
rwrist -22.6682
rhand -32.2834 31.7313
rfingers 7.12502
rthumb -5.52236 1.82323
lclavicle -7.3923e-015 7.45443e-016
lhumerus -31.8906 -24.7246 88.8065
lradius 55.7559
lwrist 19.3917
lhand -24.331 9.34311
lfingers 7.12502
lthumb 2.15772 39.3119
rfemur 8.70608 -1.17423 22.2817
rtibia 19.0916
rfoot 7.26477 -12.3938
rtoes -15.3062
lfemur 5.01454 4.36461 -20.7883
ltibia 25.0528
lfoot 12.371 16.0881
ltoes -11.1424
